<?xml version="1.0" encoding="utf-8"?>
<!-- Generator: Adobe Illustrator 24.2.0, SVG Export Plug-In . SVG Version: 6.00 Build 0)  -->
<svg version="1.1" id="图层_1" xmlns="http://www.w3.org/2000/svg" xmlns:xlink="http://www.w3.org/1999/xlink" x="0px" y="0px"
	 viewBox="0 0 94.8 68" style="enable-background:new 0 0 94.8 68;" xml:space="preserve">
<style type="text/css">
	.st0{fill:#8FD8F2;}
	.st1{fill:#2D2D2D;}
	.st2{fill:#FFFFFF;}
	.st3{fill:none;}
	.st4{fill:#259ED9;}
</style>
<g>
	<rect x="27.3" y="9.5" class="st0" width="7" height="12"/>
	<path class="st1" d="M34.3,22h-7c-0.3,0-0.5-0.2-0.5-0.5c0,0,0,0,0,0v-12C26.8,9.2,27,9,27.3,9c0,0,0,0,0,0h7
		c0.3,0,0.5,0.2,0.5,0.5c0,0,0,0,0,0v12C34.8,21.8,34.5,22,34.3,22C34.3,22,34.3,22,34.3,22z M27.8,21h6V10h-6V21z"/>
	<path class="st1" d="M10.1,67.5c-6,0-7.8-4.9-6.2-10.8c1.4-4.8,1.4-8.1-1.6-13.2c-6.9-11.7,7.2-19.9,14-11
		C25.2,44,10.1,67.5,10.1,67.5z"/>
	<path class="st1" d="M10.1,68c-2.2,0.1-4.4-0.8-5.8-2.5c-1.6-2.1-1.9-5.3-0.8-8.9c1.3-4.6,1.4-7.7-1.6-12.8
		C-1.7,37.5,0.3,32.3,4,29.8c4.2-2.8,9.9-1.8,12.8,2.4c3.7,4.8,3.8,12.5,0.2,22.2c-1.7,4.6-3.9,9.1-6.5,13.3
		C10.4,67.9,10.3,68,10.1,68z M9.1,29.3c-1.6,0-3.2,0.5-4.6,1.4c-3.3,2.2-5.1,6.9-1.8,12.6c3.1,5.4,3,8.8,1.7,13.6
		c-0.9,3.3-0.7,6.2,0.7,8C6.2,66.3,8,67.1,9.8,67C11.4,64.5,24,43.3,16,32.8C14.4,30.6,11.9,29.3,9.1,29.3z"/>
	<polyline class="st0" points="77.3,0.5 46.7,0.5 40.1,16.5 19.4,16.5 10.3,41.8 10.3,67.5 94.3,67.5 94.3,41.8 77.3,1.2 	"/>
	<path class="st1" d="M94.3,68h-84c-0.3,0-0.5-0.2-0.5-0.5c0,0,0,0,0,0V41.8c0-0.1,0-0.1,0-0.2L19,16.3c0.1-0.2,0.3-0.3,0.5-0.3
		h20.3l6.4-15.7C46.3,0.1,46.4,0,46.7,0h30.6c0.3,0,0.5,0.2,0.5,0.5c0,0.1,0,0.2-0.1,0.3c0.1,0.1,0.1,0.1,0.1,0.2l16.9,40.7
		c0,0.1,0,0.1,0,0.2v25.7C94.8,67.8,94.5,68,94.3,68C94.3,68,94.3,68,94.3,68z M10.8,67h83V41.9L76.9,1.3c0-0.1-0.1-0.2,0-0.3H47
		l-6.4,15.7c-0.1,0.2-0.3,0.3-0.5,0.3H19.8l-9,24.9L10.8,67z"/>
	<polygon class="st2" points="30.3,67.5 10.3,67.5 10.3,41.9 19.4,16.5 30.3,41.4 	"/>
	<path class="st1" d="M30.3,68h-20c-0.3,0-0.5-0.2-0.5-0.5c0,0,0,0,0,0V41.9c0-0.1,0-0.1,0-0.2L19,16.4c0.1-0.2,0.2-0.3,0.5-0.3
		c0.2,0,0.4,0.1,0.5,0.3l10.8,24.8c0,0.1,0,0.1,0,0.2v26.1C30.8,67.8,30.5,68,30.3,68C30.3,68,30.3,68,30.3,68z M10.8,67h19V41.5
		L19.5,17.9L10.8,42V67z"/>
	<line class="st3" x1="61.3" y1="67.5" x2="61.3" y2="39.5"/>
	<path class="st1" d="M61.3,68c-0.3,0-0.5-0.2-0.5-0.5c0,0,0,0,0,0v-28c0-0.3,0.2-0.5,0.5-0.5s0.5,0.2,0.5,0.5v28
		C61.8,67.8,61.5,68,61.3,68C61.3,68,61.3,68,61.3,68z"/>
	<polygon class="st4" points="31,43.5 33,34.1 46.8,0.5 77.5,0.5 59.8,43.5 	"/>
	<path class="st1" d="M59.8,44H31c-0.3,0-0.5-0.2-0.5-0.5c0,0,0-0.1,0-0.1l2-9.4L46.3,0.3C46.4,0.1,46.6,0,46.8,0h30.7
		C77.8,0,78,0.2,78,0.5c0,0.1,0,0.1,0,0.2l-17.7,43C60.2,43.9,60,44,59.8,44z M31.7,43h27.8L76.7,1H47.1L33.5,34.3L31.7,43z"/>
	<polygon class="st0" points="30.9,43.5 19.4,16.5 55.9,16.5 44.8,43.5 	"/>
	<path class="st1" d="M44.8,44h-14c-0.2,0-0.4-0.1-0.5-0.3L19,16.7c-0.1-0.3,0-0.5,0.3-0.7c0.1,0,0.1,0,0.2,0h36.5
		c0.3,0,0.5,0.2,0.5,0.5c0,0.1,0,0.1,0,0.2l-11.1,27C45.2,43.9,45,44,44.8,44z M31.2,43h13.3l10.7-26h-35L31.2,43z"/>
	<line class="st3" x1="45.3" y1="43.5" x2="45.3" y2="67.5"/>
	<path class="st1" d="M45.3,68c-0.3,0-0.5-0.2-0.5-0.5c0,0,0,0,0,0v-24c0-0.3,0.2-0.5,0.5-0.5s0.5,0.2,0.5,0.5v24
		C45.8,67.8,45.5,68,45.3,68C45.3,68,45.3,68,45.3,68z"/>
	<rect x="14.3" y="45.5" class="st2" width="12" height="17"/>
	<path class="st1" d="M26.3,63h-12c-0.3,0-0.5-0.2-0.5-0.5c0,0,0,0,0,0v-17c0-0.3,0.2-0.5,0.5-0.5c0,0,0,0,0,0h12
		c0.3,0,0.5,0.2,0.5,0.5c0,0,0,0,0,0v17C26.8,62.8,26.5,63,26.3,63C26.3,63,26.3,63,26.3,63z M14.8,62h11V46h-11V62z"/>
	<rect x="71.3" y="46.5" class="st2" width="12" height="21"/>
	<path class="st1" d="M83.3,68h-12c-0.3,0-0.5-0.2-0.5-0.5c0,0,0,0,0,0v-21c0-0.3,0.2-0.5,0.5-0.5c0,0,0,0,0,0h12
		c0.3,0,0.5,0.2,0.5,0.5c0,0,0,0,0,0v21C83.8,67.8,83.5,68,83.3,68C83.3,68,83.3,68,83.3,68z M71.8,67h11V47h-11V67z"/>
	<line class="st3" x1="20.3" y1="45.5" x2="20.3" y2="62.5"/>
	<path class="st1" d="M20.3,63c-0.3,0-0.5-0.2-0.5-0.5c0,0,0,0,0,0v-17c0-0.3,0.2-0.5,0.5-0.5s0.5,0.2,0.5,0.5v17
		C20.8,62.8,20.5,63,20.3,63C20.3,63,20.3,63,20.3,63z"/>
	<line class="st3" x1="26.3" y1="57.5" x2="14.3" y2="57.5"/>
	<path class="st1" d="M26.3,58h-12c-0.3,0-0.5-0.2-0.5-0.5S14,57,14.3,57h12c0.3,0,0.5,0.2,0.5,0.5S26.5,58,26.3,58z"/>
	<path class="st2" d="M77.3,25c3.2-0.1,5.9,2.4,6,5.5h-12C71.4,27.3,74.1,24.8,77.3,25z"/>
	<path class="st1" d="M83.3,31h-12c-0.3,0-0.5-0.2-0.5-0.5c0,0,0,0,0,0c0.3-3.6,3.4-6.3,7-6c3.2,0.2,5.8,2.8,6,6
		C83.8,30.8,83.5,31,83.3,31C83.3,31,83.3,31,83.3,31z M71.8,30h10.9c-0.6-3-3.5-5-6.5-4.4C74,26,72.2,27.7,71.8,30z"/>
	<rect x="71.3" y="30.5" class="st2" width="12" height="7"/>
	<path class="st1" d="M83.3,38h-12c-0.3,0-0.5-0.2-0.5-0.5c0,0,0,0,0,0v-7c0-0.3,0.2-0.5,0.5-0.5c0,0,0,0,0,0h12
		c0.3,0,0.5,0.2,0.5,0.5c0,0,0,0,0,0v7C83.8,37.8,83.5,38,83.3,38C83.3,38,83.3,38,83.3,38z M71.8,37h11v-6h-11V37z"/>
	<path class="st4" d="M44.8,56.9c5.9,0,10.6,4.8,10.6,10.6H34.2C34.2,61.6,39,56.9,44.8,56.9z"/>
	<path class="st1" d="M55.5,68H34.2c-0.3,0-0.5-0.2-0.5-0.5c0,0,0,0,0,0c0-6.1,5-11.1,11.1-11.1c6.1,0,11.1,5,11.1,11.1
		C56,67.8,55.7,68,55.5,68C55.5,68,55.5,68,55.5,68z M34.7,67h20.2c-0.3-5.6-5-9.9-10.6-9.6C39.1,57.6,35,61.8,34.7,67z"/>
	<line class="st3" x1="77.3" y1="30.5" x2="77.3" y2="37.5"/>
	<path class="st1" d="M77.3,38c-0.3,0-0.5-0.2-0.5-0.5c0,0,0,0,0,0v-7c0-0.3,0.2-0.5,0.5-0.5s0.5,0.2,0.5,0.5v7
		C77.8,37.8,77.5,38,77.3,38C77.3,38,77.3,38,77.3,38z"/>
	<line class="st3" x1="80.3" y1="55.5" x2="80.3" y2="59.5"/>
	<path class="st1" d="M80.3,60c-0.3,0-0.5-0.2-0.5-0.5c0,0,0,0,0,0v-4c0-0.3,0.2-0.5,0.5-0.5s0.5,0.2,0.5,0.5v4
		C80.8,59.8,80.5,60,80.3,60C80.3,60,80.3,60,80.3,60z"/>
</g>
</svg>
